<svg xmlns="http://www.w3.org/2000/svg" xmlns:xlink="http://www.w3.org/1999/xlink" viewBox="0 0 16 16"><defs><style>.cls-1{fill:url(#linear-gradient);}.cls-2{fill:url(#linear-gradient-2);}.cls-3{fill:url(#linear-gradient-3);}</style><linearGradient id="linear-gradient" x1="912.67" y1="547.32" x2="928.67" y2="547.32" gradientUnits="userSpaceOnUse"><stop offset="0" stop-color="#73c2da"/><stop offset="1" stop-color="#3a4690"/></linearGradient><linearGradient id="linear-gradient-2" x1="912.67" y1="541.66" x2="928.67" y2="541.66" xlink:href="#linear-gradient"/><linearGradient id="linear-gradient-3" x1="913.74" y1="536.91" x2="927.55" y2="536.91" xlink:href="#linear-gradient"/></defs><g id="Layer_2" data-name="Layer 2"><path class="cls-1" d="M912.91,543.93l5.94,2a5.64,5.64,0,0,0,3.63,0l5.94-2a.18.18,0,0,1,.25.15v2.16a1.72,1.72,0,0,1-1,1.51l-4.43,2.34a5.62,5.62,0,0,1-5.2,0l-4.44-2.34a1.71,1.71,0,0,1-1-1.51v-2.16A.18.18,0,0,1,912.91,543.93Z" transform="translate(-912.67 -534.73)"/><path class="cls-2" d="M928.43,538.64l-6.34,1.91a4.94,4.94,0,0,1-2.85,0l-6.34-1.91a.18.18,0,0,0-.23.16V541a1.77,1.77,0,0,0,1.24,1.64l5.14,1.78a5,5,0,0,0,3.24,0l5.13-1.78a1.78,1.78,0,0,0,1.25-1.64V538.8A.19.19,0,0,0,928.43,538.64Z" transform="translate(-912.67 -534.73)"/><path class="cls-3" d="M927.42,537.26l-5.49,1.65a4.45,4.45,0,0,1-2.53,0l-5.53-1.66a.16.16,0,0,1,0-.32l5.29-2a4.44,4.44,0,0,1,3,0l5.25,1.94A.17.17,0,0,1,927.42,537.26Z" transform="translate(-912.67 -534.73)"/></g></svg>